<?xml version="1.0" encoding="utf-8"?>
<!-- Generator: Adobe Illustrator 27.4.1, SVG Export Plug-In . SVG Version: 6.00 Build 0)  -->
<svg version="1.1" id="Layer_1" xmlns="http://www.w3.org/2000/svg" xmlns:xlink="http://www.w3.org/1999/xlink" x="0px" y="0px"
	 viewBox="0 0 93 40" style="enable-background:new 0 0 93 40;" xml:space="preserve">
<style type="text/css">
	.st0{fill:#3B413A;}
	.st1{fill:#D6E5D8;}
</style>
<path class="st0" d="M10.2,28.7c0,4.5,0.2,7.1,0.5,7.7c0.6,1.1,2.7,1.5,3.9,1.6l0,0c0.5,0.1,1.6,0.2,1.6,0.6c0,0.1,0,0.1,0,0.2
	c0,0-0.1,0-0.4,0c-0.1,0-0.2,0-0.3,0c-0.1,0-0.2,0-0.3,0H9.8H4.1c-0.1,0-0.2,0-0.3,0c-0.1,0-0.2,0-0.3,0c-0.3,0-0.4,0-0.4,0
	c0,0,0-0.1,0-0.2c0-0.4,1.1-0.5,1.6-0.6l0,0c1.2-0.1,3.4-0.5,3.9-1.6c0.1-0.2,0.5-0.9,0.6-7.7c0-1.6,0-3.3,0-4.7
	c0-2.2-0.1-2.4-0.2-2.5c-0.1-0.2-0.2-0.3-0.4-0.3c-2.2-0.4-4.5-1.7-6.2-3.5c-1.8-2-2.7-4.2-2.4-6.4C0.3,9,2.5,2.2,3.3,1.2h12.9
	c0.8,1,3,7.8,3.2,10c0.5,4.6-4.1,9.1-8.5,9.9c-0.2,0-0.3,0.2-0.4,0.4C10.2,22.1,10.2,28.4,10.2,28.7z"/>
<path class="st1" d="M16.1,16.6c0.8-1,1.4-1.9,1.5-3c0-0.1,0-0.4-0.3-0.4c-4.3-2-11.5,2.7-15.3,0c-0.3,0-0.3,0.3-0.3,0.4
	c0.1,1.2,0.7,2.1,1.5,3.1c1.3,1.7,3.1,2.8,5,2.9c0.3,0,0.9,0,1.4,0c0.5,0,1,0,1.3,0C13,19.5,14.8,18.4,16.1,16.6z"/>
<g>
	<g>
		<path class="st0" d="M22.9,14.5l0.9-0.9c0.6,1,1.5,1.5,2.4,1.5c1.6,0,2.3-0.8,2.3-2.6V6.2h-4.7V5H30v7.6c0,2.1-0.9,3.8-3.7,3.8
			C25,16.4,23.7,15.8,22.9,14.5z"/>
		<path class="st0" d="M31.7,12c0-2.7,2-4.3,4.2-4.3c2.4,0,3.8,1.5,3.8,3.9c0,0.3,0,0.6-0.1,0.9h-7v-1.1h6.2l-0.4,0.4
			c0-2-1-2.9-2.5-2.9C34.4,8.8,33,10,33,12c0,2.1,1.4,3.2,3.2,3.2c1,0,1.8-0.3,2.5-0.8l0.5,0.9c-0.8,0.5-1.9,1-3.2,1
			C33.6,16.4,31.7,14.8,31.7,12z"/>
		<path class="st0" d="M40.8,14c0-1.9,1.7-2.8,6-3.1c-0.1-1.1-0.6-2.1-2.2-2.1c-1.1,0-2.1,0.5-2.9,1l-0.6-1c0.9-0.5,2.2-1.2,3.7-1.2
			c2.3,0,3.4,1.3,3.4,3.4v5.1H47l-0.1-1.1h-0.1c-0.9,0.7-2.1,1.3-3.3,1.3C42.1,16.4,40.8,15.5,40.8,14z M46.8,14v-2.1
			c-3.5,0.3-4.6,1-4.6,2.1c0,0.9,0.9,1.3,1.8,1.3C44.9,15.2,45.9,14.8,46.8,14z"/>
		<path class="st0" d="M50,7.9h1.2l0.1,1.4h0.1c0.9-0.9,1.8-1.6,3.1-1.6c2,0,2.9,1.2,2.9,3.3v5.1h-1.4v-5c0-1.6-0.5-2.3-1.9-2.3
			c-1,0-1.7,0.5-2.6,1.5v5.8H50V7.9z"/>
		<path class="st0" d="M22.7,35.2l0.3-1.1c0.2,0.1,0.5,0.1,0.7,0.1c1.2,0,1.9-0.7,2.3-1.8l0.2-0.6l-3.8-8.3h1.4l2,4.6
			c0.3,0.7,0.7,1.6,1,2.4h0.1c0.3-0.8,0.6-1.7,0.9-2.4l1.8-4.6H31l-3.7,9c-0.6,1.6-1.6,2.9-3.5,2.9C23.4,35.4,23,35.3,22.7,35.2z"/>
		<path class="st0" d="M31.8,28.7v-5.1h1.4v5c0,1.5,0.5,2.3,1.9,2.3c1,0,1.7-0.4,2.6-1.5v-5.7h1.4v8.3h-1.2l-0.1-1.4h-0.1
			c-0.8,1-1.8,1.7-3.1,1.7C32.7,32,31.8,30.8,31.8,28.7z"/>
		<path class="st0" d="M41,19.7h1.4V23l-0.1,2h0.1c0.8-0.9,1.8-1.6,3.1-1.6c2,0,2.9,1.2,2.9,3.3v5.1h-1.4v-5c0-1.6-0.5-2.3-1.9-2.3
			c-1,0-1.7,0.5-2.6,1.5v5.8H41V19.7z"/>
		<path class="st0" d="M52.1,25c1.1-0.7,1.8-1.7,1.8-2.9l-0.3-1.3l0.9,1.1c-0.3,0.3-0.7,0.5-1.1,0.5c-0.7,0-1.2-0.5-1.2-1.2
			c0-0.8,0.5-1.3,1.3-1.3c0.9,0,1.5,0.8,1.5,2.1c0,1.7-0.9,3.1-2.4,3.9L52.1,25z"/>
		<path class="st0" d="M58.5,30.7l0.6-0.9c1,0.7,2.1,1.1,3.6,1.1c1.4,0,2.1-0.6,2.1-1.3c0-0.6-0.3-1.1-2.6-1.5
			c-2.2-0.4-3.2-1.2-3.2-2.4c0-1.3,1.2-2.4,3.4-2.4c1.3,0,2.5,0.5,3.3,1.1l-0.7,0.9c-0.8-0.5-1.7-0.9-2.8-0.9
			c-1.4,0-1.9,0.6-1.9,1.2c0,0.7,0.7,1,2.4,1.4c2.7,0.6,3.4,1.3,3.4,2.6c0,1.3-1.3,2.5-3.7,2.5C61,32,59.5,31.4,58.5,30.7z"/>
	</g>
</g>
</svg>
